<svg width="240" height="48" viewBox="0 0 240 48" fill="none" xmlns="http://www.w3.org/2000/svg">
<path d="M17.9562 17.5538C20.2102 16.0509 23.1502 16.0509 25.4042 17.5538L41.8723 28.534C43.7706 29.7998 43.8706 32.5477 42.0689 33.9475L25.798 46.5891C23.3768 48.4703 19.9836 48.4703 17.5624 46.5891L1.29136 33.9475C-0.510273 32.5477 -0.410319 29.7998 1.48827 28.534L17.9562 17.5538Z" fill="#27B4E0"/>
<path d="M17.9562 9.33424C20.2102 7.83136 23.1502 7.83136 25.4042 9.33424L41.8723 20.3144C43.7706 21.5803 43.8706 24.3282 42.0689 25.7279L25.798 38.3697C23.3768 40.2508 19.9836 40.2508 17.5624 38.3697L1.29136 25.7279C-0.510273 24.3282 -0.410319 21.5803 1.48827 20.3144L17.9562 9.33424Z" fill="#375FEF"/>
<path d="M17.9612 1.12866C20.2122 -0.376221 23.1483 -0.376221 25.3993 1.12866L41.8452 12.1235C43.7414 13.3911 43.8409 16.1427 42.0417 17.5443L25.7926 30.203C23.3746 32.0867 19.9859 32.0867 17.5679 30.203L1.31858 17.5443C-0.480644 16.1427 -0.380823 13.3911 1.51524 12.1235L17.9612 1.12866Z" fill="#7237EF"/>
<path d="M79.8916 35H75.2041L66.0791 20.0312V35H61.3916V12.25H66.0791L75.2197 27.25V12.25H79.8916V35ZM82.9854 26.3906C82.9854 24.7135 83.3083 23.2188 83.9541 21.9062C84.5999 20.5938 85.527 19.5781 86.7354 18.8594C87.9541 18.1406 89.3656 17.7812 90.9697 17.7812C93.251 17.7812 95.1104 18.4792 96.5479 19.875C97.9958 21.2708 98.8031 23.1667 98.9697 25.5625L99.001 26.7188C99.001 29.3125 98.277 31.3958 96.8291 32.9688C95.3812 34.5312 93.4385 35.3125 91.001 35.3125C88.5635 35.3125 86.6156 34.5312 85.1572 32.9688C83.7093 31.4062 82.9854 29.2812 82.9854 26.5938V26.3906ZM87.501 26.7188C87.501 28.3229 87.8031 29.5521 88.4072 30.4062C89.0114 31.25 89.876 31.6719 91.001 31.6719C92.0947 31.6719 92.9489 31.2552 93.5635 30.4219C94.1781 29.5781 94.4854 28.2344 94.4854 26.3906C94.4854 24.8177 94.1781 23.599 93.5635 22.7344C92.9489 21.8698 92.0843 21.4375 90.9697 21.4375C89.8656 21.4375 89.0114 21.8698 88.4072 22.7344C87.8031 23.5885 87.501 24.9167 87.501 26.7188ZM111.282 22.3281C110.668 22.2448 110.126 22.2031 109.657 22.2031C107.949 22.2031 106.829 22.7812 106.298 23.9375V35H101.782V18.0938H106.048L106.173 20.1094C107.079 18.5573 108.334 17.7812 109.938 17.7812C110.438 17.7812 110.907 17.849 111.345 17.9844L111.282 22.3281ZM119.657 13.9375V18.0938H122.548V21.4062H119.657V29.8438C119.657 30.4688 119.777 30.9167 120.017 31.1875C120.256 31.4583 120.715 31.5938 121.392 31.5938C121.892 31.5938 122.334 31.5573 122.72 31.4844V34.9062C121.834 35.1771 120.923 35.3125 119.985 35.3125C116.819 35.3125 115.204 33.7135 115.142 30.5156V21.4062H112.673V18.0938H115.142V13.9375H119.657ZM129.47 19.9375C130.668 18.5 132.173 17.7812 133.985 17.7812C137.652 17.7812 139.511 19.9115 139.563 24.1719V35H135.048V24.2969C135.048 23.3281 134.84 22.6146 134.423 22.1562C134.006 21.6875 133.313 21.4531 132.345 21.4531C131.022 21.4531 130.063 21.9635 129.47 22.9844V35H124.954V11H129.47V19.9375ZM155.063 29.0312C155.063 28.1458 154.751 27.4688 154.126 27C153.501 26.5208 152.376 26.0208 150.751 25.5C149.126 24.9688 147.84 24.4479 146.892 23.9375C144.308 22.5417 143.017 20.6615 143.017 18.2969C143.017 17.0677 143.36 15.974 144.048 15.0156C144.746 14.0469 145.741 13.2917 147.032 12.75C148.334 12.2083 149.793 11.9375 151.407 11.9375C153.032 11.9375 154.48 12.2344 155.751 12.8281C157.022 13.4115 158.006 14.2396 158.704 15.3125C159.412 16.3854 159.767 17.6042 159.767 18.9688H155.079C155.079 17.9271 154.751 17.1198 154.095 16.5469C153.438 15.9635 152.517 15.6719 151.329 15.6719C150.183 15.6719 149.293 15.9167 148.657 16.4062C148.022 16.8854 147.704 17.5208 147.704 18.3125C147.704 19.0521 148.074 19.6719 148.813 20.1719C149.563 20.6719 150.662 21.1406 152.11 21.5781C154.777 22.3802 156.72 23.375 157.938 24.5625C159.157 25.75 159.767 27.2292 159.767 29C159.767 30.9688 159.022 32.5156 157.532 33.6406C156.043 34.7552 154.037 35.3125 151.517 35.3125C149.767 35.3125 148.173 34.9948 146.735 34.3594C145.298 33.7135 144.199 32.8333 143.438 31.7188C142.688 30.6042 142.313 29.3125 142.313 27.8438H147.017C147.017 30.3542 148.517 31.6094 151.517 31.6094C152.631 31.6094 153.501 31.3854 154.126 30.9375C154.751 30.4792 155.063 29.8438 155.063 29.0312ZM168.063 13.9375V18.0938H170.954V21.4062H168.063V29.8438C168.063 30.4688 168.183 30.9167 168.423 31.1875C168.662 31.4583 169.121 31.5938 169.798 31.5938C170.298 31.5938 170.741 31.5573 171.126 31.4844V34.9062C170.241 35.1771 169.329 35.3125 168.392 35.3125C165.225 35.3125 163.61 33.7135 163.548 30.5156V21.4062H161.079V18.0938H163.548V13.9375H168.063ZM183.267 35C183.058 34.5938 182.907 34.0885 182.813 33.4844C181.72 34.7031 180.298 35.3125 178.548 35.3125C176.892 35.3125 175.517 34.8333 174.423 33.875C173.34 32.9167 172.798 31.7083 172.798 30.25C172.798 28.4583 173.459 27.0833 174.782 26.125C176.116 25.1667 178.037 24.6823 180.548 24.6719H182.626V23.7031C182.626 22.9219 182.423 22.2969 182.017 21.8281C181.621 21.3594 180.991 21.125 180.126 21.125C179.366 21.125 178.767 21.3073 178.329 21.6719C177.902 22.0365 177.688 22.5365 177.688 23.1719H173.173C173.173 22.1927 173.475 21.2865 174.079 20.4531C174.683 19.6198 175.537 18.9688 176.642 18.5C177.746 18.0208 178.985 17.7812 180.36 17.7812C182.444 17.7812 184.095 18.3073 185.313 19.3594C186.543 20.401 187.157 21.8698 187.157 23.7656V31.0938C187.168 32.6979 187.392 33.9115 187.829 34.7344V35H183.267ZM179.532 31.8594C180.199 31.8594 180.813 31.7135 181.376 31.4219C181.938 31.1198 182.355 30.7188 182.626 30.2188V27.3125H180.938C178.678 27.3125 177.475 28.0938 177.329 29.6562L177.313 29.9219C177.313 30.4844 177.511 30.9479 177.907 31.3125C178.303 31.6771 178.845 31.8594 179.532 31.8594ZM200.126 22.3281C199.511 22.2448 198.97 22.2031 198.501 22.2031C196.793 22.2031 195.673 22.7812 195.142 23.9375V35H190.626V18.0938H194.892L195.017 20.1094C195.923 18.5573 197.178 17.7812 198.782 17.7812C199.282 17.7812 199.751 17.849 200.188 17.9844L200.126 22.3281ZM227.798 12.25V27.2344C227.798 29.724 227.017 31.6927 225.454 33.1406C223.902 34.5885 221.777 35.3125 219.079 35.3125C216.423 35.3125 214.313 34.6094 212.751 33.2031C211.188 31.7969 210.392 29.8646 210.36 27.4062V12.25H215.048V27.2656C215.048 28.7552 215.402 29.8438 216.11 30.5312C216.829 31.2083 217.819 31.5469 219.079 31.5469C221.715 31.5469 223.053 30.1615 223.095 27.3906V12.25H227.798ZM236.626 35H231.938V12.25H236.626V35Z" fill="#7237EF"/>
</svg>
