<svg width="105" height="115" viewBox="0 0 105 115" fill="none" xmlns="http://www.w3.org/2000/svg">
<mask id="mask0" mask-type="alpha" maskUnits="userSpaceOnUse" x="0" y="0" width="105" height="115">
<rect width="105" height="115" fill="#C4C4C4"/>
</mask>
<g mask="url(#mask0)">
<path d="M43.5956 42.2522C48.9851 38.6587 56.0149 38.6587 61.4044 42.2522L100.781 68.5066C105.32 71.5334 105.559 78.1038 101.251 81.4508L62.346 111.678C56.5567 116.176 48.4433 116.176 42.654 111.678L3.74855 81.4508C-0.559298 78.1038 -0.3203 71.5334 4.21939 68.5066L43.5956 42.2522Z" fill="#27B4E0"/>
<path d="M43.5956 22.5985C48.9851 19.005 56.0149 19.005 61.4044 22.5985L100.781 48.8529C105.32 51.8798 105.559 58.4502 101.251 61.7972L62.346 92.0246C56.5567 96.5226 48.4433 96.5226 42.654 92.0246L3.74855 61.7972C-0.559298 58.4502 -0.3203 51.8798 4.21939 48.8529L43.5956 22.5985Z" fill="#375FEF"/>
<path d="M43.6075 2.9783C48.9898 -0.620004 56.0102 -0.620004 61.3925 2.9783L100.716 29.2679C105.25 32.2988 105.488 38.8781 101.186 42.2295L62.3329 72.4975C56.5513 77.0015 48.4487 77.0015 42.6671 72.4975L3.81365 42.2295C-0.488454 38.878 -0.249774 32.2988 4.28386 29.2679L43.6075 2.9783Z" fill="#7237EF"/>
</g>
</svg>
